<svg width="25" height="19" viewBox="0 0 25 19" fill="none" xmlns="http://www.w3.org/2000/svg">
<path d="M4.6524 18.6102H8.72338C9.04325 18.6102 9.30495 18.3485 9.30495 18.0287V16.0901C9.30495 15.7702 9.04325 15.5085 8.72338 15.5085H4.6524C3.79458 15.5085 3.10154 14.8155 3.10154 13.9577V4.65256C3.10154 3.79474 3.79458 3.1017 4.6524 3.1017H8.72338C9.04325 3.1017 9.30495 2.84 9.30495 2.52013V0.58157C9.30495 0.261706 9.04325 0 8.72338 0H4.6524C2.0838 0 -0.000162125 2.08396 -0.000162125 4.65256V13.9577C-0.000162125 16.5263 2.0838 18.6102 4.6524 18.6102ZM6.93021 8.86894L15.0722 0.726962C15.7991 0 17.0592 0.508873 17.0592 1.55085V6.20341H23.6503C24.2949 6.20341 24.8135 6.72197 24.8135 7.36655V12.0191C24.8135 12.6637 24.2949 13.1822 23.6503 13.1822H17.0592V17.8348C17.0592 18.8768 15.7991 19.3857 15.0722 18.6587L6.93021 10.5167C6.47949 10.0612 6.47949 9.3245 6.93021 8.86894Z" fill="black"/>
</svg>
