<svg width="58" height="26" viewBox="0 0 58 26" fill="none" xmlns="http://www.w3.org/2000/svg">
<ellipse cx="40.3742" cy="12.758" rx="17.5539" ry="12.758" fill="#F9AE3F"/>
<ellipse cx="17.5539" cy="12.758" rx="17.5539" ry="12.758" fill="#EB3B3B"/>
<path d="M9.62617 9.82902H10.3735L12.1309 14.1213H12.1915L13.9488 9.82902H14.6962V15H14.1104V11.0713H14.0599L12.444 15H11.8784L10.2624 11.0713H10.2119V15H9.62617V9.82902ZM17.0121 15.0909C16.7664 15.0909 16.5433 15.0446 16.343 14.952C16.1427 14.8578 15.9836 14.7223 15.8658 14.5455C15.748 14.3671 15.6891 14.1516 15.6891 13.8991C15.6891 13.677 15.7328 13.4968 15.8204 13.3588C15.9079 13.2191 16.0249 13.1097 16.1713 13.0306C16.3178 12.9515 16.4794 12.8926 16.6561 12.8538C16.8345 12.8134 17.0138 12.7815 17.1939 12.7579C17.4296 12.7276 17.6206 12.7049 17.7671 12.6897C17.9152 12.6729 18.0229 12.6451 18.0902 12.6064C18.1593 12.5677 18.1938 12.5004 18.1938 12.4044V12.3842C18.1938 12.1351 18.1256 11.9415 17.9892 11.8035C17.8546 11.6655 17.6501 11.5964 17.3757 11.5964C17.0912 11.5964 16.8682 11.6587 16.7066 11.7833C16.545 11.9078 16.4314 12.0408 16.3657 12.1822L15.8002 11.9802C15.9012 11.7446 16.0358 11.5611 16.2041 11.4298C16.3742 11.2968 16.5593 11.2042 16.7596 11.1521C16.9616 11.0982 17.1602 11.0713 17.3555 11.0713C17.4801 11.0713 17.6231 11.0864 17.7847 11.1167C17.948 11.1453 18.1054 11.2051 18.2569 11.296C18.4101 11.3869 18.5372 11.5241 18.6381 11.7075C18.7391 11.891 18.7896 12.1368 18.7896 12.4448V15H18.1938V14.4748H18.1635C18.1231 14.559 18.0557 14.649 17.9615 14.745C17.8672 14.8409 17.7418 14.9226 17.5853 14.9899C17.4287 15.0572 17.2377 15.0909 17.0121 15.0909ZM17.103 14.5556C17.3387 14.5556 17.5373 14.5093 17.6989 14.4167C17.8622 14.3242 17.985 14.2047 18.0675 14.0582C18.1517 13.9118 18.1938 13.7578 18.1938 13.5962V13.0508C18.1685 13.0811 18.113 13.1089 18.0271 13.1341C17.943 13.1577 17.8453 13.1787 17.7342 13.1972C17.6248 13.2141 17.5179 13.2292 17.4136 13.2427C17.3109 13.2545 17.2276 13.2646 17.1636 13.273C17.0087 13.2932 16.864 13.326 16.7293 13.3714C16.5963 13.4152 16.4886 13.4817 16.4061 13.5709C16.3253 13.6584 16.2849 13.778 16.2849 13.9294C16.2849 14.1365 16.3615 14.293 16.5147 14.3991C16.6696 14.5034 16.8657 14.5556 17.103 14.5556ZM22.6243 11.9903L22.089 12.1418C22.0554 12.0526 22.0057 11.9659 21.9401 11.8818C21.8761 11.7959 21.7886 11.7252 21.6775 11.6697C21.5664 11.6141 21.4242 11.5863 21.2508 11.5863C21.0134 11.5863 20.8157 11.6411 20.6574 11.7505C20.5009 11.8582 20.4226 11.9954 20.4226 12.162C20.4226 12.3101 20.4765 12.4271 20.5842 12.513C20.6919 12.5988 20.8603 12.6704 21.0892 12.7276L21.6649 12.869C22.0116 12.9532 22.27 13.0819 22.44 13.2553C22.61 13.427 22.695 13.6483 22.695 13.9193C22.695 14.1415 22.6311 14.3402 22.5031 14.5152C22.3769 14.6903 22.2001 14.8283 21.9729 14.9293C21.7457 15.0303 21.4814 15.0808 21.1801 15.0808C20.7845 15.0808 20.4571 14.995 20.1979 14.8233C19.9387 14.6516 19.7746 14.4008 19.7055 14.0708L20.2711 13.9294C20.325 14.1382 20.4268 14.2947 20.5766 14.3991C20.7281 14.5034 20.9259 14.5556 21.17 14.5556C21.4477 14.5556 21.6682 14.4967 21.8315 14.3789C21.9965 14.2594 22.0789 14.1163 22.0789 13.9496C22.0789 13.815 22.0318 13.7022 21.9375 13.6113C21.8433 13.5187 21.6985 13.4497 21.5033 13.4043L20.8569 13.2528C20.5017 13.1686 20.2408 13.0382 20.0742 12.8614C19.9092 12.683 19.8267 12.46 19.8267 12.1923C19.8267 11.9735 19.8882 11.7799 20.0111 11.6116C20.1356 11.4433 20.3048 11.3111 20.5186 11.2152C20.734 11.1192 20.9781 11.0713 21.2508 11.0713C21.6346 11.0713 21.9359 11.1554 22.1547 11.3238C22.3752 11.4921 22.5317 11.7143 22.6243 11.9903ZM25.2786 11.1218V11.6267H23.2688V11.1218H25.2786ZM23.8546 10.1926H24.4504V13.889C24.4504 14.0574 24.4749 14.1836 24.5237 14.2678C24.5742 14.3503 24.6381 14.4058 24.7156 14.4344C24.7947 14.4614 24.878 14.4748 24.9655 14.4748C25.0312 14.4748 25.085 14.4715 25.1271 14.4647C25.1692 14.4563 25.2029 14.4496 25.2281 14.4445L25.3493 14.9798C25.3089 14.995 25.2525 15.0101 25.1801 15.0252C25.1078 15.0421 25.016 15.0505 24.9049 15.0505C24.7366 15.0505 24.5716 15.0143 24.4101 14.9419C24.2501 14.8695 24.1172 14.7593 24.0111 14.6112C23.9068 14.463 23.8546 14.2762 23.8546 14.0506V10.1926ZM27.7593 15.0808C27.3856 15.0808 27.0633 14.9983 26.7923 14.8334C26.523 14.6667 26.3151 14.4344 26.1686 14.1365C26.0239 13.8369 25.9515 13.4884 25.9515 13.0912C25.9515 12.6939 26.0239 12.3438 26.1686 12.0408C26.3151 11.7362 26.5188 11.4988 26.7797 11.3288C27.0423 11.1571 27.3486 11.0713 27.6987 11.0713C27.9007 11.0713 28.1002 11.1049 28.2971 11.1723C28.4941 11.2396 28.6733 11.349 28.8349 11.5005C28.9965 11.6503 29.1253 11.8489 29.2212 12.0964C29.3172 12.3438 29.3652 12.6485 29.3652 13.0104V13.2629H26.3757V12.7478H28.7592C28.7592 12.529 28.7154 12.3337 28.6279 12.162C28.542 11.9903 28.4192 11.8548 28.2592 11.7555C28.101 11.6562 27.9142 11.6065 27.6987 11.6065C27.4614 11.6065 27.256 11.6655 27.0826 11.7833C26.911 11.8994 26.7788 12.0509 26.6862 12.2378C26.5937 12.4246 26.5474 12.6249 26.5474 12.8387V13.1821C26.5474 13.475 26.5979 13.7232 26.6989 13.9269C26.8015 14.1289 26.9438 14.2829 27.1256 14.389C27.3074 14.4933 27.5186 14.5455 27.7593 14.5455C27.9159 14.5455 28.0573 14.5236 28.1835 14.4799C28.3114 14.4344 28.4217 14.3671 28.5143 14.2779C28.6068 14.187 28.6784 14.0742 28.7289 13.9395L29.3046 14.1011C29.244 14.2964 29.1421 14.4681 28.999 14.6162C28.856 14.7627 28.6792 14.8771 28.4688 14.9596C28.2584 15.0404 28.0219 15.0808 27.7593 15.0808ZM30.2716 15V11.1218H30.8473V11.7075H30.8877C30.9584 11.5156 31.0863 11.3599 31.2714 11.2404C31.4566 11.1209 31.6653 11.0612 31.8976 11.0612C31.9414 11.0612 31.9961 11.062 32.0617 11.0637C32.1274 11.0654 32.177 11.0679 32.2107 11.0713V11.6772C32.1905 11.6722 32.1442 11.6646 32.0718 11.6545C32.0011 11.6427 31.9262 11.6368 31.8471 11.6368C31.6586 11.6368 31.4903 11.6764 31.3421 11.7555C31.1957 11.8329 31.0796 11.9407 30.9937 12.0787C30.9095 12.215 30.8675 12.3707 30.8675 12.5458V15H30.2716ZM37.1589 11.445H36.5327C36.4957 11.2648 36.4309 11.1066 36.3383 10.9703C36.2474 10.8339 36.1363 10.7195 36.005 10.6269C35.8754 10.5326 35.7315 10.4619 35.5732 10.4148C35.415 10.3677 35.25 10.3441 35.0784 10.3441C34.7653 10.3441 34.4816 10.4232 34.2275 10.5814C33.975 10.7397 33.7738 10.9728 33.624 11.2808C33.4759 11.5889 33.4018 11.9668 33.4018 12.4145C33.4018 12.8623 33.4759 13.2401 33.624 13.5482C33.7738 13.8562 33.975 14.0894 34.2275 14.2476C34.4816 14.4058 34.7653 14.4849 35.0784 14.4849C35.25 14.4849 35.415 14.4614 35.5732 14.4142C35.7315 14.3671 35.8754 14.2972 36.005 14.2047C36.1363 14.1104 36.2474 13.9951 36.3383 13.8587C36.4309 13.7207 36.4957 13.5625 36.5327 13.3841H37.1589C37.1117 13.6483 37.0259 13.8848 36.9013 14.0936C36.7768 14.3023 36.6219 14.4799 36.4367 14.6263C36.2516 14.7711 36.0437 14.8813 35.8131 14.9571C35.5842 15.0328 35.3393 15.0707 35.0784 15.0707C34.6373 15.0707 34.2451 14.963 33.9018 14.7475C33.5584 14.5321 33.2882 14.2257 33.0913 13.8284C32.8943 13.4312 32.7958 12.9599 32.7958 12.4145C32.7958 11.8691 32.8943 11.3978 33.0913 11.0006C33.2882 10.6033 33.5584 10.297 33.9018 10.0815C34.2451 9.86605 34.6373 9.75832 35.0784 9.75832C35.3393 9.75832 35.5842 9.7962 35.8131 9.87194C36.0437 9.94769 36.2516 10.0588 36.4367 10.2052C36.6219 10.35 36.7768 10.5267 36.9013 10.7355C37.0259 10.9425 37.1117 11.179 37.1589 11.445ZM39.2312 15.0909C38.9854 15.0909 38.7624 15.0446 38.5621 14.952C38.3618 14.8578 38.2027 14.7223 38.0849 14.5455C37.967 14.3671 37.9081 14.1516 37.9081 13.8991C37.9081 13.677 37.9519 13.4968 38.0394 13.3588C38.127 13.2191 38.2439 13.1097 38.3904 13.0306C38.5368 12.9515 38.6984 12.8926 38.8752 12.8538C39.0536 12.8134 39.2329 12.7815 39.413 12.7579C39.6486 12.7276 39.8397 12.7049 39.9861 12.6897C40.1342 12.6729 40.242 12.6451 40.3093 12.6064C40.3783 12.5677 40.4128 12.5004 40.4128 12.4044V12.3842C40.4128 12.1351 40.3446 11.9415 40.2083 11.8035C40.0736 11.6655 39.8691 11.5964 39.5948 11.5964C39.3103 11.5964 39.0873 11.6587 38.9257 11.7833C38.7641 11.9078 38.6504 12.0408 38.5848 12.1822L38.0192 11.9802C38.1202 11.7446 38.2549 11.5611 38.4232 11.4298C38.5932 11.2968 38.7784 11.2042 38.9787 11.1521C39.1807 11.0982 39.3793 11.0713 39.5746 11.0713C39.6991 11.0713 39.8422 11.0864 40.0038 11.1167C40.1671 11.1453 40.3244 11.2051 40.4759 11.296C40.6291 11.3869 40.7562 11.5241 40.8572 11.7075C40.9582 11.891 41.0087 12.1368 41.0087 12.4448V15H40.4128V14.4748H40.3825C40.3421 14.559 40.2748 14.649 40.1805 14.745C40.0863 14.8409 39.9609 14.9226 39.8043 14.9899C39.6478 15.0572 39.4567 15.0909 39.2312 15.0909ZM39.3221 14.5556C39.5577 14.5556 39.7563 14.5093 39.9179 14.4167C40.0812 14.3242 40.2041 14.2047 40.2866 14.0582C40.3707 13.9118 40.4128 13.7578 40.4128 13.5962V13.0508C40.3876 13.0811 40.332 13.1089 40.2462 13.1341C40.162 13.1577 40.0644 13.1787 39.9533 13.1972C39.8439 13.2141 39.737 13.2292 39.6326 13.2427C39.5299 13.2545 39.4466 13.2646 39.3827 13.273C39.2278 13.2932 39.083 13.326 38.9484 13.3714C38.8154 13.4152 38.7077 13.4817 38.6252 13.5709C38.5444 13.6584 38.504 13.778 38.504 13.9294C38.504 14.1365 38.5806 14.293 38.7338 14.3991C38.8886 14.5034 39.0847 14.5556 39.3221 14.5556ZM42.0963 15V11.1218H42.672V11.7075H42.7124C42.7831 11.5156 42.911 11.3599 43.0961 11.2404C43.2813 11.1209 43.49 11.0612 43.7223 11.0612C43.7661 11.0612 43.8208 11.062 43.8864 11.0637C43.9521 11.0654 44.0017 11.0679 44.0354 11.0713V11.6772C44.0152 11.6722 43.9689 11.6646 43.8965 11.6545C43.8258 11.6427 43.7509 11.6368 43.6718 11.6368C43.4833 11.6368 43.315 11.6764 43.1668 11.7555C43.0204 11.8329 42.9043 11.9407 42.8184 12.0787C42.7342 12.215 42.6922 12.3707 42.6922 12.5458V15H42.0963ZM46.0881 15.0808C45.765 15.0808 45.4796 14.9992 45.2322 14.8359C44.9848 14.6709 44.7912 14.4386 44.6515 14.139C44.5118 13.8377 44.4419 13.4817 44.4419 13.071C44.4419 12.6636 44.5118 12.3101 44.6515 12.0105C44.7912 11.7109 44.9856 11.4795 45.2347 11.3162C45.4839 11.1529 45.7717 11.0713 46.0982 11.0713C46.3507 11.0713 46.5502 11.1133 46.6966 11.1975C46.8448 11.28 46.9576 11.3743 47.035 11.4803C47.1141 11.5847 47.1755 11.6705 47.2193 11.7378H47.2698V9.82902H47.8657V15H47.29V14.4041H47.2193C47.1755 14.4748 47.1133 14.564 47.0325 14.6718C46.9517 14.7778 46.8364 14.8729 46.6865 14.9571C46.5367 15.0396 46.3373 15.0808 46.0881 15.0808ZM46.1689 14.5455C46.408 14.5455 46.61 14.4832 46.7749 14.3587C46.9399 14.2324 47.0653 14.0582 47.1511 13.836C47.237 13.6122 47.2799 13.3538 47.2799 13.0609C47.2799 12.7714 47.2378 12.518 47.1537 12.3009C47.0695 12.0821 46.9449 11.9121 46.78 11.7909C46.615 11.668 46.4113 11.6065 46.1689 11.6065C45.9165 11.6065 45.706 11.6713 45.5377 11.801C45.3711 11.9289 45.2457 12.1031 45.1615 12.3236C45.079 12.5424 45.0378 12.7882 45.0378 13.0609C45.0378 13.3369 45.0799 13.5877 45.164 13.8133C45.2499 14.0372 45.3761 14.2156 45.5428 14.3486C45.7111 14.4799 45.9198 14.5455 46.1689 14.5455Z" fill="white"/>
</svg>
