<svg width="15" height="16" viewBox="0 0 15 16" fill="none" xmlns="http://www.w3.org/2000/svg">
<path d="M13.8452 3.84045C11.4688 3.60496 9.0782 3.48364 6.6947 3.48364C5.28173 3.48364 3.86876 3.555 2.45579 3.69773L1 3.84045" stroke="#292D32" stroke-width="1.07043" stroke-linecap="round" stroke-linejoin="round"/>
<path d="M4.9248 3.11946L5.0818 2.18461C5.19598 1.50667 5.28162 1 6.48764 1H8.35732C9.56335 1 9.65612 1.53522 9.76316 2.19175L9.92016 3.11946" stroke="#292D32" stroke-width="1.07043" stroke-linecap="round" stroke-linejoin="round"/>
<path d="M12.3108 6.09521L11.8469 13.2814C11.7684 14.4018 11.7042 15.2724 9.7132 15.2724H5.13176C3.14076 15.2724 3.07653 14.4018 2.99803 13.2814L2.53418 6.09521" stroke="#292D32" stroke-width="1.07043" stroke-linecap="round" stroke-linejoin="round"/>
<path d="M6.23145 11.3479H8.60781" stroke="#292D32" stroke-width="1.07043" stroke-linecap="round" stroke-linejoin="round"/>
<path d="M5.6377 8.49316H9.2058" stroke="#292D32" stroke-width="1.07043" stroke-linecap="round" stroke-linejoin="round"/>
</svg>
