<svg width="234" height="178" viewBox="0 0 234 178" fill="none" xmlns="http://www.w3.org/2000/svg">
<rect y="58.4082" width="207.175" height="123.83" rx="10.494" transform="rotate(-16.3753 0 58.4082)" fill="#E4DEF5"/>
<path d="M195.072 118.966C194.772 119.054 194.492 119.048 194.233 118.946C193.973 118.844 193.742 118.653 193.538 118.373C193.335 118.093 193.167 117.73 193.037 117.287C192.908 116.846 192.853 116.453 192.872 116.108C192.893 115.761 192.985 115.474 193.148 115.248C193.312 115.019 193.542 114.861 193.84 114.774C194.137 114.686 194.416 114.695 194.676 114.799C194.937 114.901 195.169 115.092 195.373 115.373C195.578 115.652 195.745 116.012 195.875 116.453C196.005 116.897 196.06 117.292 196.041 117.638C196.021 117.983 195.93 118.269 195.767 118.496C195.604 118.721 195.372 118.878 195.072 118.966ZM194.943 118.528C195.241 118.44 195.43 118.229 195.51 117.894C195.59 117.558 195.552 117.125 195.396 116.594C195.292 116.24 195.166 115.95 195.018 115.724C194.87 115.498 194.707 115.34 194.528 115.251C194.35 115.162 194.163 115.146 193.966 115.204C193.671 115.291 193.484 115.504 193.403 115.844C193.322 116.182 193.36 116.616 193.515 117.146C193.619 117.5 193.745 117.789 193.892 118.014C194.039 118.239 194.201 118.396 194.378 118.484C194.557 118.571 194.745 118.586 194.943 118.528ZM198.555 117.943C198.281 118.023 198.025 118.046 197.787 118.01C197.549 117.973 197.347 117.886 197.18 117.749C197.012 117.611 196.897 117.431 196.833 117.21C196.781 117.038 196.768 116.869 196.794 116.702C196.82 116.535 196.878 116.384 196.969 116.251C197.06 116.115 197.177 116.013 197.318 115.942L197.311 115.918C197.101 115.925 196.913 115.861 196.748 115.727C196.582 115.591 196.468 115.414 196.406 115.197C196.344 114.99 196.342 114.79 196.4 114.595C196.458 114.4 196.567 114.229 196.725 114.08C196.884 113.93 197.084 113.82 197.323 113.75C197.559 113.681 197.784 113.666 197.998 113.705C198.212 113.745 198.396 113.831 198.55 113.963C198.706 114.095 198.815 114.264 198.877 114.471C198.939 114.688 198.937 114.899 198.87 115.103C198.804 115.306 198.683 115.46 198.506 115.567L198.513 115.591C198.668 115.574 198.82 115.598 198.967 115.663C199.114 115.727 199.245 115.822 199.359 115.949C199.472 116.074 199.555 116.223 199.607 116.395C199.67 116.616 199.668 116.83 199.601 117.038C199.534 117.244 199.411 117.426 199.231 117.586C199.053 117.744 198.827 117.863 198.555 117.943ZM198.426 117.504C198.611 117.45 198.761 117.373 198.878 117.274C198.994 117.175 199.073 117.06 199.114 116.93C199.155 116.799 199.155 116.661 199.114 116.514C199.067 116.361 198.987 116.236 198.874 116.141C198.761 116.046 198.627 115.984 198.471 115.956C198.317 115.928 198.154 115.939 197.981 115.99C197.807 116.041 197.662 116.121 197.545 116.229C197.429 116.336 197.349 116.46 197.306 116.602C197.263 116.743 197.266 116.89 197.312 117.044C197.354 117.19 197.427 117.307 197.53 117.395C197.635 117.483 197.764 117.536 197.917 117.556C198.071 117.576 198.24 117.559 198.426 117.504ZM197.857 115.567C198.003 115.525 198.124 115.457 198.22 115.366C198.317 115.274 198.382 115.166 198.417 115.041C198.451 114.917 198.448 114.785 198.408 114.644C198.366 114.506 198.298 114.395 198.204 114.312C198.11 114.227 197.998 114.173 197.869 114.15C197.739 114.126 197.599 114.137 197.449 114.181C197.297 114.225 197.172 114.293 197.074 114.384C196.976 114.473 196.911 114.579 196.879 114.701C196.847 114.822 196.852 114.951 196.894 115.089C196.934 115.23 197.001 115.343 197.096 115.43C197.192 115.515 197.305 115.571 197.437 115.596C197.568 115.621 197.708 115.611 197.857 115.567ZM200.884 112.557L201.005 117.829L200.574 117.955L200.454 112.683L200.884 112.557ZM202.689 116.667L202.584 116.309L203.497 114.438C203.605 114.219 203.691 114.031 203.756 113.873C203.82 113.714 203.86 113.571 203.876 113.444C203.893 113.315 203.883 113.188 203.846 113.063C203.804 112.919 203.733 112.805 203.633 112.721C203.535 112.636 203.418 112.582 203.283 112.56C203.148 112.537 203.007 112.548 202.859 112.591C202.703 112.637 202.575 112.71 202.477 112.809C202.381 112.907 202.317 113.023 202.288 113.157C202.259 113.291 202.268 113.436 202.313 113.591L201.843 113.729C201.773 113.49 201.766 113.264 201.823 113.051C201.881 112.838 201.989 112.653 202.15 112.496C202.311 112.339 202.511 112.226 202.749 112.156C202.988 112.086 203.215 112.074 203.429 112.121C203.643 112.167 203.828 112.261 203.983 112.401C204.139 112.542 204.247 112.717 204.309 112.927C204.353 113.077 204.369 113.232 204.356 113.391C204.345 113.549 204.299 113.735 204.217 113.95C204.137 114.162 204.017 114.428 203.857 114.748L203.228 115.998L203.238 116.03L205.135 115.472L205.263 115.911L202.689 116.667ZM207.458 115.327C207.29 115.373 207.113 115.39 206.927 115.378C206.742 115.367 206.559 115.308 206.378 115.204C206.197 115.099 206.028 114.934 205.872 114.71C205.715 114.485 205.581 114.184 205.47 113.807C205.364 113.445 205.304 113.115 205.289 112.816C205.275 112.516 205.304 112.251 205.376 112.022C205.449 111.792 205.561 111.6 205.714 111.447C205.868 111.293 206.06 111.183 206.29 111.115C206.518 111.048 206.735 111.034 206.94 111.074C207.146 111.111 207.329 111.195 207.489 111.323C207.65 111.452 207.778 111.618 207.873 111.819L207.387 111.962C207.288 111.792 207.155 111.665 206.99 111.583C206.824 111.5 206.634 111.491 206.418 111.554C206.102 111.647 205.894 111.857 205.792 112.186C205.692 112.514 205.715 112.926 205.86 113.424L205.891 113.414C205.933 113.28 205.993 113.157 206.072 113.048C206.151 112.936 206.247 112.84 206.359 112.76C206.471 112.679 206.597 112.618 206.736 112.577C206.97 112.509 207.201 112.504 207.43 112.564C207.657 112.623 207.86 112.737 208.037 112.907C208.214 113.076 208.341 113.292 208.418 113.555C208.492 113.808 208.503 114.055 208.452 114.298C208.401 114.54 208.291 114.753 208.122 114.936C207.955 115.118 207.733 115.248 207.458 115.327ZM207.329 114.888C207.496 114.839 207.634 114.753 207.742 114.63C207.852 114.507 207.925 114.364 207.96 114.2C207.997 114.037 207.99 113.868 207.94 113.696C207.89 113.527 207.807 113.385 207.691 113.269C207.575 113.151 207.44 113.07 207.284 113.027C207.13 112.983 206.969 112.985 206.801 113.034C206.675 113.071 206.565 113.131 206.471 113.214C206.377 113.295 206.301 113.391 206.244 113.501C206.188 113.611 206.153 113.729 206.14 113.854C206.126 113.978 206.137 114.101 206.173 114.224C206.22 114.386 206.302 114.526 206.42 114.645C206.538 114.763 206.676 114.845 206.835 114.893C206.994 114.94 207.159 114.938 207.329 114.888Z" fill="black"/>
<ellipse cx="38.0027" cy="118.418" rx="2.37483" ry="2.17728" transform="rotate(-16.3753 38.0027 118.418)" fill="#AFAFAF"/>
<ellipse cx="80.5339" cy="105.92" rx="2.37483" ry="2.17728" transform="rotate(-16.3753 80.5339 105.92)" fill="#AFAFAF"/>
<ellipse cx="129.141" cy="91.6372" rx="2.37483" ry="2.17728" transform="rotate(-16.3753 129.141 91.6372)" fill="#AFAFAF"/>
<ellipse cx="177.753" cy="77.353" rx="2.37483" ry="2.17728" transform="rotate(-16.3753 177.753 77.353)" fill="#AFAFAF"/>
<ellipse cx="44.0788" cy="116.632" rx="2.37483" ry="2.17728" transform="rotate(-16.3753 44.0788 116.632)" fill="#AFAFAF"/>
<ellipse cx="86.6091" cy="104.135" rx="2.37483" ry="2.17728" transform="rotate(-16.3753 86.6091 104.135)" fill="#AFAFAF"/>
<ellipse cx="135.218" cy="89.8518" rx="2.37483" ry="2.17728" transform="rotate(-16.3753 135.218 89.8518)" fill="#AFAFAF"/>
<ellipse cx="183.824" cy="75.5691" rx="2.37483" ry="2.17728" transform="rotate(-16.3753 183.824 75.5691)" fill="#AFAFAF"/>
<ellipse cx="50.155" cy="114.847" rx="2.37483" ry="2.17728" transform="rotate(-16.3753 50.155 114.847)" fill="#AFAFAF"/>
<ellipse cx="92.6872" cy="102.349" rx="2.37483" ry="2.17728" transform="rotate(-16.3753 92.6872 102.349)" fill="#AFAFAF"/>
<ellipse cx="141.294" cy="88.0662" rx="2.37483" ry="2.17728" transform="rotate(-16.3753 141.294 88.0662)" fill="#AFAFAF"/>
<ellipse cx="189.902" cy="73.7825" rx="2.37483" ry="2.17728" transform="rotate(-16.3753 189.902 73.7825)" fill="#AFAFAF"/>
<ellipse cx="56.2292" cy="113.062" rx="2.37483" ry="2.17728" transform="rotate(-16.3753 56.2292 113.062)" fill="#AFAFAF"/>
<ellipse cx="98.7615" cy="100.564" rx="2.37483" ry="2.17728" transform="rotate(-16.3753 98.7615 100.564)" fill="#AFAFAF"/>
<ellipse cx="147.368" cy="86.2812" rx="2.37483" ry="2.17728" transform="rotate(-16.3753 147.368 86.2812)" fill="#AFAFAF"/>
<ellipse cx="195.978" cy="71.9973" rx="2.37483" ry="2.17728" transform="rotate(-16.3753 195.978 71.9973)" fill="#AFAFAF"/>
<path d="M48.8342 161.877L47.635 157.796L50.0819 157.077L50.2107 157.515L48.258 158.089L48.6632 159.468L50.4326 158.948L50.5614 159.386L48.792 159.906L49.3283 161.731L48.8342 161.877ZM53.1011 160.692C52.8248 160.773 52.563 160.779 52.3158 160.708C52.07 160.638 51.8538 160.501 51.6675 160.299C51.4824 160.097 51.3434 159.838 51.2505 159.521C51.1568 159.203 51.1329 158.907 51.1786 158.636C51.2256 158.363 51.3334 158.131 51.502 157.939C51.6719 157.746 51.895 157.609 52.1713 157.528C52.4476 157.447 52.7087 157.441 52.9546 157.512C53.2018 157.582 53.4181 157.719 53.6035 157.923C53.7903 158.126 53.9305 158.388 54.0242 158.706C54.1171 159.022 54.1399 159.316 54.0924 159.587C54.0463 159.857 53.9383 160.089 53.7684 160.282C53.5998 160.474 53.3774 160.611 53.1011 160.692ZM52.977 160.27C53.1869 160.208 53.3437 160.103 53.4476 159.956C53.5515 159.809 53.6102 159.638 53.6238 159.443C53.6373 159.249 53.6141 159.049 53.554 158.845C53.4938 158.64 53.4053 158.459 53.2883 158.301C53.1713 158.144 53.029 158.03 52.8615 157.961C52.694 157.892 52.5053 157.889 52.2954 157.95C52.0855 158.012 51.9289 158.117 51.8254 158.266C51.7219 158.415 51.6635 158.587 51.6504 158.783C51.6372 158.978 51.6607 159.179 51.7208 159.383C51.7809 159.588 51.8693 159.768 51.9859 159.924C52.1025 160.081 52.2444 160.193 52.4115 160.26C52.5786 160.328 52.7671 160.331 52.977 160.27ZM51.4593 157.226C51.3756 157.251 51.2918 157.241 51.208 157.196C51.1251 157.15 51.0713 157.085 51.0468 157.001C51.0198 156.909 51.0295 156.824 51.0757 156.746C51.1228 156.666 51.1882 156.613 51.2719 156.589C51.3635 156.562 51.4482 156.57 51.526 156.613C51.6046 156.655 51.6574 156.722 51.6844 156.814C51.709 156.897 51.7003 156.981 51.6583 157.064C51.6173 157.145 51.5509 157.199 51.4593 157.226ZM52.607 156.889C52.5233 156.913 52.4395 156.903 52.3557 156.859C52.2728 156.812 52.2191 156.747 52.1945 156.664C52.1676 156.572 52.1772 156.487 52.2234 156.408C52.2705 156.328 52.3359 156.276 52.4196 156.251C52.5113 156.224 52.596 156.233 52.6737 156.276C52.7524 156.318 52.8052 156.385 52.8321 156.476C52.8567 156.56 52.848 156.643 52.806 156.726C52.765 156.808 52.6986 156.862 52.607 156.889ZM55.187 160.01L54.2877 156.949L54.742 156.816L54.8778 157.278L54.9097 157.269C54.921 157.101 54.9859 156.948 55.1043 156.811C55.2227 156.674 55.3735 156.578 55.5569 156.524C55.5914 156.514 55.6348 156.502 55.687 156.488C55.7392 156.474 55.7789 156.465 55.8063 156.46L55.9468 156.938C55.9297 156.939 55.8914 156.943 55.8319 156.952C55.7734 156.959 55.7129 156.972 55.6505 156.99C55.5017 157.034 55.3781 157.104 55.2795 157.201C55.1819 157.296 55.1152 157.408 55.0795 157.537C55.0447 157.664 55.0476 157.797 55.0882 157.935L55.6573 159.872L55.187 160.01ZM57.204 157.417L57.745 159.258L57.2748 159.396L56.3754 156.336L56.8297 156.202L56.9702 156.68L57.0101 156.669C57.0362 156.492 57.1084 156.335 57.2268 156.198C57.3448 156.059 57.5194 155.956 57.7505 155.888C57.9578 155.827 58.1516 155.817 58.332 155.856C58.512 155.894 58.6704 155.986 58.8071 156.132C58.9434 156.277 59.0498 156.479 59.1263 156.74L59.6978 158.684L59.2275 158.822L58.6654 156.91C58.5948 156.669 58.4773 156.5 58.313 156.403C58.1483 156.304 57.957 156.287 57.7392 156.351C57.5891 156.395 57.4645 156.467 57.3654 156.566C57.2676 156.666 57.2032 156.788 57.1721 156.933C57.1411 157.078 57.1517 157.239 57.204 157.417ZM61.4788 158.239C61.2848 158.296 61.0981 158.311 60.9185 158.284C60.7386 158.257 60.5817 158.186 60.4477 158.074C60.3133 157.961 60.2169 157.804 60.1583 157.605C60.1068 157.43 60.0996 157.278 60.1366 157.148C60.1733 157.018 60.2403 156.904 60.3375 156.808C60.4347 156.712 60.5486 156.628 60.6791 156.556C60.8105 156.483 60.9446 156.416 61.0812 156.356C61.2602 156.277 61.4057 156.215 61.5177 156.169C61.6307 156.121 61.7093 156.074 61.7535 156.028C61.799 155.982 61.8106 155.92 61.7883 155.845L61.7836 155.829C61.7259 155.632 61.6272 155.495 61.4876 155.418C61.3493 155.34 61.1719 155.333 60.9554 155.397C60.7309 155.463 60.5693 155.564 60.4707 155.699C60.372 155.835 60.3132 155.967 60.2942 156.093L59.801 156.065C59.826 155.856 59.8898 155.68 59.9922 155.537C60.0955 155.393 60.2201 155.277 60.3661 155.189C60.513 155.1 60.6635 155.032 60.8176 154.987C60.9159 154.958 61.0324 154.937 61.1669 154.923C61.3024 154.908 61.4405 154.919 61.5811 154.955C61.7231 154.992 61.8552 155.07 61.9774 155.192C62.0997 155.313 62.1965 155.495 62.2679 155.738L62.8605 157.755L62.3902 157.893L62.2685 157.479L62.2445 157.486C62.2322 157.561 62.1999 157.648 62.1478 157.746C62.0956 157.843 62.0156 157.937 61.9077 158.026C61.7998 158.116 61.6568 158.187 61.4788 158.239ZM61.4264 157.795C61.6124 157.741 61.7584 157.658 61.8644 157.548C61.9718 157.437 62.0411 157.314 62.0722 157.179C62.1047 157.044 62.1022 156.913 62.0647 156.785L61.9382 156.355C61.9253 156.385 61.8879 156.419 61.826 156.459C61.7651 156.497 61.6929 156.537 61.6095 156.577C61.5271 156.616 61.4462 156.652 61.367 156.687C61.2887 156.72 61.2253 156.748 61.1768 156.769C61.0592 156.821 60.9526 156.88 60.8569 156.948C60.7621 157.013 60.6925 157.09 60.6481 157.18C60.6046 157.268 60.6005 157.371 60.6356 157.491C60.6836 157.654 60.7803 157.76 60.9258 157.808C61.0722 157.855 61.2391 157.85 61.4264 157.795ZM63.7188 157.503L62.8194 154.442L63.2738 154.309L63.4143 154.787L63.4541 154.775C63.4699 154.593 63.5356 154.436 63.6512 154.304C63.7664 154.17 63.9236 154.074 64.1228 154.016C64.3248 153.957 64.5063 153.953 64.6674 154.005C64.8294 154.056 64.9723 154.152 65.096 154.293L65.1279 154.283C65.1598 154.102 65.2405 153.942 65.3699 153.803C65.499 153.663 65.6731 153.56 65.8923 153.496C66.1659 153.415 66.4149 153.435 66.6393 153.556C66.8633 153.675 67.0282 153.914 67.1339 154.274L67.7359 156.322L67.2656 156.461L66.6637 154.412C66.5973 154.186 66.4881 154.043 66.3361 153.982C66.1841 153.922 66.0244 153.916 65.857 153.965C65.6418 154.028 65.4942 154.142 65.4142 154.307C65.3339 154.471 65.3228 154.652 65.3809 154.85L65.9664 156.842L65.4882 156.983L64.8723 154.887C64.8211 154.713 64.7235 154.589 64.5793 154.516C64.4348 154.442 64.2735 154.43 64.0955 154.483C63.9733 154.519 63.8686 154.585 63.7815 154.681C63.6957 154.777 63.6372 154.892 63.6061 155.027C63.5759 155.16 63.5828 155.302 63.627 155.452L64.1891 157.365L63.7188 157.503ZM68.5249 154.09L69.0659 155.932L68.5957 156.07L67.6963 153.009L68.1506 152.876L68.2911 153.354L68.331 153.342C68.3571 153.166 68.4293 153.009 68.5477 152.871C68.6657 152.733 68.8403 152.63 69.0714 152.562C69.2787 152.501 69.4725 152.49 69.6529 152.529C69.8329 152.567 69.9913 152.659 70.128 152.805C70.2643 152.95 70.3707 153.153 70.4472 153.413L71.0186 155.358L70.5484 155.496L69.9863 153.583C69.9157 153.343 69.7982 153.174 69.6339 153.076C69.4692 152.977 69.2779 152.96 69.0601 153.024C68.91 153.068 68.7854 153.14 68.6863 153.24C68.5885 153.339 68.5241 153.461 68.493 153.606C68.462 153.751 68.4726 153.912 68.5249 154.09Z" fill="black"/>
<path d="M76.2902 153.809L75.0911 149.728L77.5539 149.004L77.6827 149.443L75.7141 150.021L76.1192 151.4L77.9604 150.859L78.0892 151.297L76.248 151.838L76.6556 153.225L78.6561 152.637L78.7849 153.076L76.2902 153.809ZM80.0436 149.381L80.1607 149.78L78.5108 150.264L78.3937 149.866L80.0436 149.381ZM79.7872 152.781L78.7637 149.298C78.7122 149.123 78.7104 148.965 78.7585 148.824C78.8065 148.683 78.8876 148.563 79.002 148.466C79.1163 148.369 79.2465 148.299 79.3927 148.256C79.5082 148.222 79.6053 148.204 79.6838 148.201C79.7623 148.198 79.8219 148.199 79.8624 148.205L79.8464 148.651C79.8201 148.65 79.784 148.65 79.738 148.651C79.6933 148.651 79.637 148.661 79.5693 148.681C79.4139 148.726 79.3131 148.798 79.2671 148.897C79.2224 148.995 79.2223 149.12 79.2668 149.272L80.2575 152.643L79.7872 152.781ZM82.0337 148.796L82.1508 149.195L80.5647 149.661L80.4476 149.262L82.0337 148.796ZM80.6944 148.393L81.1646 148.255L82.0218 151.172C82.0608 151.305 82.1094 151.399 82.1674 151.454C82.2264 151.508 82.2898 151.537 82.3575 151.541C82.4262 151.544 82.4951 151.535 82.5641 151.515C82.6159 151.5 82.6577 151.485 82.6893 151.47C82.7206 151.453 82.7456 151.44 82.7643 151.43L82.9841 151.825C82.9557 151.846 82.9148 151.871 82.8612 151.9C82.8079 151.93 82.7375 151.958 82.6498 151.983C82.517 152.022 82.3784 152.032 82.2341 152.013C82.0911 151.993 81.9606 151.936 81.8426 151.844C81.7259 151.751 81.6413 151.616 81.589 151.438L80.6944 148.393ZM84.9095 151.345C84.6146 151.432 84.341 151.442 84.0889 151.374C83.8377 151.305 83.6198 151.17 83.4352 150.969C83.2514 150.766 83.1135 150.508 83.0214 150.195C82.9293 149.881 82.9052 149.588 82.9492 149.315C82.9941 149.041 83.0998 148.806 83.2663 148.612C83.4337 148.415 83.6555 148.276 83.9318 148.195C84.0913 148.148 84.2565 148.129 84.4275 148.136C84.5985 148.144 84.7654 148.188 84.928 148.271C85.0903 148.351 85.238 148.478 85.3711 148.651C85.5042 148.824 85.6127 149.054 85.6966 149.339L85.7552 149.538L83.396 150.232L83.2765 149.825L85.1575 149.272C85.1068 149.1 85.027 148.956 84.9181 148.841C84.8105 148.725 84.6821 148.647 84.5329 148.605C84.385 148.564 84.226 148.568 84.056 148.618C83.8687 148.673 83.7203 148.767 83.6108 148.9C83.5022 149.032 83.4331 149.182 83.4033 149.351C83.3736 149.52 83.3835 149.688 83.4331 149.857L83.5127 150.128C83.5806 150.359 83.6781 150.543 83.805 150.681C83.9329 150.816 84.0808 150.905 84.2489 150.946C84.4166 150.987 84.5954 150.979 84.7853 150.923C84.9089 150.887 85.0154 150.837 85.1049 150.773C85.1953 150.707 85.2667 150.629 85.3191 150.537C85.371 150.444 85.4013 150.338 85.41 150.22L85.9017 150.214C85.8992 150.382 85.8587 150.541 85.7801 150.691C85.7011 150.84 85.5882 150.971 85.4413 151.085C85.294 151.198 85.1167 151.285 84.9095 151.345ZM86.8734 150.699L85.974 147.638L86.4283 147.505L86.5642 147.967L86.596 147.958C86.6073 147.79 86.6722 147.638 86.7906 147.5C86.909 147.363 87.0599 147.267 87.2432 147.214C87.2777 147.203 87.3211 147.191 87.3733 147.178C87.4255 147.164 87.4653 147.154 87.4926 147.149L87.6331 147.627C87.616 147.628 87.5777 147.633 87.5183 147.641C87.4597 147.649 87.3993 147.661 87.3368 147.68C87.188 147.723 87.0644 147.794 86.9658 147.89C86.8682 147.985 86.8015 148.097 86.7658 148.226C86.731 148.353 86.7339 148.486 86.7745 148.624L87.3436 150.561L86.8734 150.699ZM88.8903 148.106L89.4313 149.947L88.9611 150.086L88.0617 147.025L88.516 146.892L88.6566 147.37L88.6964 147.358C88.7225 147.182 88.7947 147.025 88.9131 146.887C89.0311 146.749 89.2057 146.646 89.4369 146.578C89.6441 146.517 89.8379 146.506 90.0183 146.545C90.1983 146.583 90.3567 146.675 90.4934 146.821C90.6297 146.966 90.7361 147.169 90.8126 147.429L91.3841 149.374L90.9138 149.512L90.3517 147.599C90.2811 147.358 90.1636 147.19 89.9993 147.092C89.8346 146.993 89.6434 146.976 89.4255 147.04C89.2754 147.084 89.1508 147.156 89.0517 147.256C88.9539 147.355 88.8895 147.477 88.8584 147.622C88.8274 147.767 88.838 147.928 88.8903 148.106ZM93.1651 148.928C92.9712 148.985 92.7844 149 92.6049 148.974C92.4249 148.946 92.268 148.876 92.134 148.764C91.9996 148.65 91.9032 148.494 91.8446 148.295C91.7931 148.119 91.7859 147.967 91.8229 147.838C91.8596 147.707 91.9266 147.594 92.0238 147.497C92.121 147.401 92.2349 147.317 92.3654 147.245C92.4968 147.172 92.6309 147.105 92.7676 147.045C92.9465 146.966 93.092 146.904 93.2041 146.858C93.3171 146.811 93.3956 146.764 93.4398 146.717C93.4853 146.671 93.4969 146.61 93.4747 146.534L93.47 146.518C93.4122 146.322 93.3135 146.185 93.1739 146.107C93.0356 146.03 92.8582 146.023 92.6417 146.086C92.4172 146.152 92.2556 146.253 92.157 146.389C92.0583 146.525 91.9995 146.656 91.9805 146.783L91.4873 146.754C91.5124 146.545 91.5761 146.369 91.6785 146.226C91.7818 146.082 91.9065 145.966 92.0524 145.878C92.1994 145.789 92.3499 145.722 92.504 145.676C92.6023 145.647 92.7187 145.626 92.8532 145.613C92.9887 145.597 93.1268 145.608 93.2674 145.645C93.4094 145.681 93.5415 145.76 93.6637 145.881C93.786 146.002 93.8828 146.185 93.9543 146.428L94.5468 148.444L94.0766 148.582L93.9548 148.168L93.9309 148.175C93.9185 148.251 93.8862 148.337 93.8341 148.435C93.782 148.533 93.7019 148.626 93.594 148.716C93.4861 148.805 93.3431 148.876 93.1651 148.928ZM93.1127 148.485C93.2987 148.43 93.4447 148.347 93.5508 148.237C93.6581 148.126 93.7274 148.003 93.7585 147.868C93.791 147.733 93.7885 147.602 93.751 147.475L93.6245 147.044C93.6116 147.074 93.5742 147.109 93.5124 147.149C93.4514 147.187 93.3792 147.226 93.2959 147.266C93.2134 147.305 93.1326 147.342 93.0533 147.377C92.975 147.41 92.9116 147.437 92.8631 147.458C92.7456 147.51 92.6389 147.57 92.5432 147.637C92.4484 147.702 92.3788 147.78 92.3344 147.869C92.2909 147.957 92.2868 148.061 92.3219 148.18C92.3699 148.344 92.4667 148.449 92.6121 148.498C92.7586 148.544 92.9254 148.54 93.1127 148.485ZM95.4051 148.192L94.5058 145.131L94.9601 144.998L95.1006 145.476L95.1405 145.464C95.1562 145.282 95.2219 145.125 95.3375 144.993C95.4527 144.86 95.6099 144.764 95.8092 144.705C96.0111 144.646 96.1926 144.642 96.3537 144.695C96.5157 144.745 96.6586 144.841 96.7823 144.982L96.8142 144.973C96.8462 144.792 96.9268 144.631 97.0563 144.492C97.1853 144.352 97.3594 144.25 97.5786 144.185C97.8522 144.105 98.1012 144.125 98.3256 144.245C98.5496 144.364 98.7145 144.603 98.8203 144.963L99.4222 147.012L98.9519 147.15L98.35 145.101C98.2837 144.876 98.1745 144.732 98.0224 144.672C97.8704 144.611 97.7107 144.605 97.5433 144.654C97.3281 144.718 97.1805 144.832 97.1005 144.997C97.0202 145.16 97.0091 145.341 97.0672 145.539L97.6528 147.532L97.1745 147.672L96.5586 145.576C96.5074 145.402 96.4098 145.278 96.2657 145.205C96.1211 145.131 95.9599 145.12 95.7819 145.172C95.6596 145.208 95.555 145.274 95.4678 145.37C95.382 145.466 95.3235 145.582 95.2924 145.716C95.2622 145.849 95.2692 145.991 95.3133 146.141L95.8754 148.054L95.4051 148.192ZM100.211 144.78L100.752 146.621L100.282 146.759L99.3826 143.698L99.8369 143.565L99.9775 144.043L100.017 144.031C100.043 143.855 100.116 143.698 100.234 143.561C100.352 143.422 100.527 143.319 100.758 143.251C100.965 143.19 101.159 143.179 101.339 143.219C101.519 143.257 101.678 143.349 101.814 143.495C101.951 143.639 102.057 143.842 102.134 144.102L102.705 146.047L102.235 146.185L101.673 144.272C101.602 144.032 101.484 143.863 101.32 143.765C101.156 143.667 100.964 143.649 100.746 143.713C100.596 143.757 100.472 143.829 100.373 143.929C100.275 144.029 100.21 144.151 100.179 144.296C100.148 144.44 100.159 144.602 100.211 144.78Z" fill="black"/>
<path d="M43.4689 64.558L40.7892 83.3295L35.8678 84.7756L28.2729 72.6543C27.8081 71.9077 27.5257 71.6687 26.7388 71.5258C25.4557 71.2962 23.454 71.3157 21.7322 71.4675L21.7015 70.9543L29.6238 68.6263C30.6339 68.3295 31.7231 68.6809 32.2675 69.686L37.0423 78.6859L38.5768 65.995L43.4688 64.5575L43.4689 64.558ZM66.0292 70.0413C64.7649 65.6662 58.1057 67.3612 57.5777 65.3959C57.417 64.798 57.8462 63.9855 59.1449 63.4289C59.7885 63.1525 61.6086 62.5511 63.9523 62.8197L63.7388 59.0683C62.5092 59.0251 60.9618 59.0889 59.1687 59.6158C54.5665 60.9682 51.9889 64.1704 52.908 67.4005C53.5789 69.7922 56.3109 70.4344 58.3079 70.7079C60.3607 70.9856 61.1228 71.3275 61.3292 72.0554C61.6425 73.1685 60.3521 74.0814 59.0169 74.4944C56.6867 75.2153 55.148 75 53.9271 74.8543L54.1488 78.7295C55.3733 78.8661 57.4997 78.6786 59.5874 78.0869C64.4788 76.6496 67.0254 73.4869 66.0292 70.0413ZM79.7702 71.8751L84.0762 70.6098L75.4531 55.1596L71.4773 56.3278C71.0512 56.4496 70.6684 56.6862 70.3787 57.0067C70.089 57.3273 69.9057 57.717 69.8527 58.1252L67.3748 75.5174L72.264 74.0807L72.5077 71.3227L78.4812 69.5674L79.7702 71.8751ZM72.852 67.5377L73.4756 60.5998L76.7128 66.4016L72.852 67.5377ZM50.1213 62.6032L51.1356 80.2893L46.4798 81.6573L45.4667 63.971L50.1213 62.6032Z" fill="black"/>
</svg>
